<svg width="75" height="98" viewBox="0 0 75 98" fill="none" xmlns="http://www.w3.org/2000/svg">
<g filter="url(#filter0_ddd)">
<path d="M5 4H37.5C55.4493 4 70 18.5507 70 36.5V90H37.5C19.5507 90 5 75.4493 5 57.5V4Z" fill="white"/>
</g>
<circle cx="45.5" cy="60.5" r="12.5" fill="#FCD723" fill-opacity="0.5"/>
<circle cx="22.5" cy="42.5" r="4.5" fill="black" fill-opacity="0.3"/>
<path d="M40.7992 67.1867C40.1037 67.1867 39.4406 67.0244 38.8281 66.7043C38.6838 66.6159 37.8062 66.1102 36.6028 66.1103C35.8732 66.1103 35.1673 66.2947 34.5048 66.6584L34.4389 66.6948C34.0011 66.9367 33.5483 67.1867 32.4482 67.1867C30.0952 67.1867 28.1808 65.2723 28.1808 62.9192C28.1808 61.3985 29.0006 59.9819 30.3206 59.2207C30.4722 59.1376 31.8863 58.3046 32.5064 55.8386C32.9647 54.0165 34.6963 52.694 36.6237 52.694C38.4961 52.694 40.1534 53.9674 40.7478 55.8628C41.5077 58.286 43.0438 59.2964 43.2242 59.4082C44.3781 60.2067 45.0667 61.5184 45.0667 62.9191C45.0666 65.2723 43.1522 67.1867 40.7992 67.1867Z" fill="#FF0000"/>
<path d="M43.5336 58.7194C43.5265 58.7145 43.5176 58.7087 43.51 58.7043C43.4964 58.6961 42.1359 57.8593 41.468 55.73C40.78 53.5357 38.8468 52.0614 36.6578 52.0614C34.4047 52.0614 32.3789 53.6141 31.8409 55.7534C31.3152 57.8435 30.1854 58.4714 30.1391 58.4963C30.134 58.499 30.1287 58.5018 30.1237 58.5047C28.5781 59.3934 27.6179 61.0511 27.6179 62.8307C27.6179 65.5812 29.8556 67.819 32.6061 67.819C33.8921 67.819 34.4772 67.4957 34.9474 67.236L35.0095 67.2018C35.526 66.9183 36.0737 66.7745 36.6375 66.7745C37.6306 66.7745 38.3507 67.224 38.3565 67.2276C38.367 67.2343 38.3778 67.2406 38.3888 67.2464C39.0996 67.6211 39.9021 67.8191 40.7095 67.8191C43.46 67.8191 45.6978 65.5813 45.6977 62.8307C45.6976 61.1888 44.8887 59.6519 43.5336 58.7194ZM40.7095 66.9717C40.0346 66.9717 39.3912 66.8142 38.7969 66.5036C38.6569 66.4178 37.8052 65.9271 36.6376 65.9272C35.9296 65.9272 35.2446 66.1061 34.6018 66.4591L34.5378 66.4943C34.113 66.7291 33.6737 66.9717 32.6062 66.9717C30.3229 66.9717 28.4653 65.1141 28.4653 62.8307C28.4653 61.3551 29.2608 59.9805 30.5416 59.2419C30.6887 59.1613 32.0609 58.3529 32.6626 55.96C33.1073 54.192 34.7875 52.9087 36.6578 52.9087C38.4747 52.9087 40.0829 54.1444 40.6596 55.9836C41.3971 58.3349 42.8875 59.3153 43.0626 59.4238C44.1823 60.1986 44.8505 61.4714 44.8505 62.8306C44.8504 65.1141 42.9928 66.9717 40.7095 66.9717Z" fill="black"/>
<path d="M25.9017 50.9392C23.9681 50.9392 22.395 52.5123 22.395 54.446C22.395 56.3796 23.9681 57.9527 25.9017 57.9527C27.8354 57.9527 29.4084 56.3795 29.4084 54.446C29.4084 52.5124 27.8354 50.9392 25.9017 50.9392ZM25.9017 57.1053C24.4354 57.1053 23.2423 55.9123 23.2423 54.446C23.2423 52.9795 24.4354 51.7866 25.9017 51.7866C27.3681 51.7866 28.5611 52.9796 28.5611 54.446C28.5611 55.9123 27.3681 57.1053 25.9017 57.1053Z" fill="black"/>
<path d="M41.2062 44.4675C39.2725 44.4675 37.6995 46.0407 37.6995 47.9742C37.6995 49.9078 39.2726 51.4809 41.2062 51.4809C43.1398 51.4809 44.7129 49.9078 44.7129 47.9742C44.7129 46.0407 43.1398 44.4675 41.2062 44.4675ZM41.2062 50.6336C39.7397 50.6336 38.5468 49.4407 38.5468 47.9743C38.5468 46.5079 39.7398 45.3149 41.2062 45.3149C42.6726 45.3149 43.8656 46.5079 43.8656 47.9743C43.8656 49.4407 42.6726 50.6336 41.2062 50.6336Z" fill="black"/>
<path d="M42.6018 60.1354L42.5867 60.1253C42.3597 59.9797 41.5618 59.418 40.8251 58.3043C40.696 58.1091 40.4332 58.0556 40.238 58.1847C40.0429 58.3139 39.9894 58.5767 40.1185 58.7718C40.9177 59.98 41.7792 60.6127 42.1211 60.8332C42.7692 61.2927 43.1559 62.0387 43.1559 62.8307C43.1559 63.0647 43.3456 63.2543 43.5795 63.2543C43.8136 63.2543 44.0031 63.0647 44.0032 62.8307C44.0031 61.7606 43.4793 60.753 42.6018 60.1354Z" fill="black"/>
<path d="M43.1576 64.3856C42.9807 64.2325 42.713 64.2519 42.56 64.4289C42.0937 64.9679 41.4192 65.2771 40.7095 65.2771C40.4755 65.2771 40.2859 65.4668 40.2859 65.7008C40.2859 65.9348 40.4755 66.1244 40.7095 66.1244C41.6655 66.1244 42.5735 65.7084 43.2009 64.9831C43.3539 64.8061 43.3346 64.5387 43.1576 64.3856Z" fill="black"/>
<path d="M32.0678 44.4675C31.8338 44.4675 31.6442 44.6572 31.6442 44.8912C31.6442 45.1252 31.8339 45.3148 32.0678 45.3148C33.5342 45.3148 34.7272 46.5078 34.7272 47.9742C34.7272 49.4406 33.5342 50.6336 32.0678 50.6336C30.6014 50.6336 29.4084 49.4406 29.4084 47.9742C29.4084 47.1821 29.7579 46.4366 30.3675 45.9293C30.5473 45.7796 30.5718 45.5125 30.4221 45.3326C30.2723 45.1528 30.0052 45.1284 29.8254 45.278C29.0219 45.9469 28.561 46.9297 28.561 47.9742C28.561 49.9078 30.1342 51.4809 32.0677 51.4809C34.0014 51.4809 35.5745 49.9078 35.5745 47.9742C35.5745 46.0407 34.0014 44.4675 32.0678 44.4675Z" fill="black"/>
<path d="M49.6071 51.7435C49.4269 51.5943 49.1598 51.6194 49.0106 51.7997C48.8614 51.9799 48.8865 52.2469 49.0668 52.3962C49.68 52.9038 50.0317 53.651 50.0317 54.446C50.0317 55.9124 48.8387 57.1054 47.3723 57.1054C45.9059 57.1054 44.7129 55.9124 44.7129 54.446C44.7129 52.9796 45.9059 51.7866 47.3723 51.7866C47.6063 51.7866 47.7959 51.597 47.7959 51.363C47.7959 51.1289 47.6063 50.9393 47.3723 50.9393C45.4387 50.9393 43.8656 52.5125 43.8656 54.446C43.8656 56.3796 45.4387 57.9527 47.3723 57.9527C49.3059 57.9527 50.879 56.3796 50.8791 54.446C50.8791 53.3976 50.4154 52.4126 49.6071 51.7435Z" fill="black"/>
<path d="M11.7447 22.79L10.2747 25H9.35473L10.9347 22.71L11.2747 22.41L10.7647 22.03L9.46473 20H10.3147L11.6947 22.16H12.2147V20H12.9947V22.26L13.4647 22.12L14.8547 20H15.6947L14.3347 22.03L13.9447 22.35L14.4547 22.75L15.9347 25H14.9847L13.5147 22.75H12.9947V25H12.2147V22.65L11.7447 22.79ZM19.8265 22.04L19.8565 21.42H19.8265L19.4165 22.06L17.1665 25H16.7065V20H17.5065V23.05L17.4765 23.64H17.5165L17.9065 23.02L20.1565 20H20.6265V25H19.8265V22.04ZM22.1655 20.01C22.3988 19.9967 22.6422 19.98 22.8955 19.96C23.1555 19.94 23.4755 19.93 23.8555 19.93C24.5155 19.93 24.9888 20.0333 25.2755 20.24C25.5622 20.44 25.7055 20.7467 25.7055 21.16C25.7055 21.3933 25.6355 21.6233 25.4955 21.85C25.3622 22.07 25.1388 22.2333 24.8255 22.34V22.38C25.2188 22.4533 25.4955 22.59 25.6555 22.79C25.8155 22.99 25.8955 23.2567 25.8955 23.59C25.8955 24.11 25.7088 24.4867 25.3355 24.72C24.9622 24.9533 24.4022 25.07 23.6555 25.07C23.3755 25.07 23.1155 25.06 22.8755 25.04C22.6355 25.0267 22.3988 25.01 22.1655 24.99V20.01ZM22.9655 24.33C23.0922 24.3433 23.2155 24.3533 23.3355 24.36C23.4622 24.3667 23.6088 24.37 23.7755 24.37C24.2222 24.37 24.5522 24.3067 24.7655 24.18C24.9855 24.0533 25.0955 23.8367 25.0955 23.53C25.0955 23.29 25.0022 23.0967 24.8155 22.95C24.6355 22.7967 24.3122 22.72 23.8455 22.72H22.9655V24.33ZM23.9455 22.11C24.0655 22.11 24.1822 22.09 24.2955 22.05C24.4088 22.01 24.5088 21.9567 24.5955 21.89C24.6888 21.8167 24.7622 21.7333 24.8155 21.64C24.8755 21.5467 24.9055 21.4467 24.9055 21.34C24.9055 21.0733 24.8255 20.89 24.6655 20.79C24.5055 20.6833 24.2255 20.63 23.8255 20.63C23.6122 20.63 23.4422 20.6333 23.3155 20.64C23.1955 20.6467 23.0788 20.6533 22.9655 20.66V22.11H23.9455ZM26.8757 22.5C26.8757 21.6533 27.0624 21.0067 27.4357 20.56C27.8157 20.1067 28.3591 19.88 29.0657 19.88C29.4391 19.88 29.7624 19.9433 30.0357 20.07C30.3157 20.19 30.5457 20.3667 30.7257 20.6C30.9057 20.8267 31.0391 21.1033 31.1257 21.43C31.2124 21.75 31.2557 22.1067 31.2557 22.5C31.2557 23.3467 31.0657 23.9967 30.6857 24.45C30.3124 24.8967 29.7724 25.12 29.0657 25.12C28.6924 25.12 28.3657 25.06 28.0857 24.94C27.8124 24.8133 27.5857 24.6367 27.4057 24.41C27.2257 24.1767 27.0924 23.9 27.0057 23.58C26.9191 23.2533 26.8757 22.8933 26.8757 22.5ZM27.7057 22.5C27.7057 22.7533 27.7291 22.9967 27.7757 23.23C27.8291 23.4633 27.9091 23.6667 28.0157 23.84C28.1224 24.0133 28.2624 24.1533 28.4357 24.26C28.6091 24.3667 28.8191 24.42 29.0657 24.42C29.9724 24.4267 30.4257 23.7867 30.4257 22.5C30.4257 22.24 30.3991 21.9933 30.3457 21.76C30.2991 21.5267 30.2224 21.3233 30.1157 21.15C30.0091 20.9767 29.8691 20.84 29.6957 20.74C29.5224 20.6333 29.3124 20.58 29.0657 20.58C28.1591 20.5733 27.7057 21.2133 27.7057 22.5ZM35.5508 20.7H33.9808V25H33.1808V20.7H31.6108V20H35.5508V20.7ZM39.4052 22.79H37.1452V25H36.3452V20H37.1452V22.09H39.4052V20H40.2052V25H39.4052V22.79ZM42.5456 24.3C42.7923 24.34 43.0289 24.36 43.2556 24.36C43.6756 24.36 43.9689 24.28 44.1356 24.12C44.3023 23.9533 44.3856 23.72 44.3856 23.42C44.3856 23.1533 44.3023 22.9333 44.1356 22.76C43.9756 22.5867 43.6923 22.5 43.2856 22.5C43.1723 22.5 43.0489 22.5033 42.9156 22.51C42.7823 22.5167 42.6589 22.5367 42.5456 22.57V24.3ZM42.5456 21.91C42.7056 21.8833 42.8589 21.8667 43.0056 21.86C43.1523 21.8467 43.2923 21.84 43.4256 21.84C43.7656 21.84 44.0489 21.88 44.2756 21.96C44.5089 22.0333 44.6956 22.1367 44.8356 22.27C44.9756 22.4033 45.0723 22.5633 45.1256 22.75C45.1856 22.93 45.2156 23.1233 45.2156 23.33C45.2156 23.9367 45.0456 24.3767 44.7056 24.65C44.3723 24.9233 43.8289 25.06 43.0756 25.06C42.6489 25.06 42.2056 25.04 41.7456 25V20H42.5456V21.91ZM46.0056 20H46.8056V25H46.0056V20ZM51.9971 24.6C51.7971 24.76 51.5438 24.8867 51.2371 24.98C50.9371 25.0733 50.6171 25.12 50.2771 25.12C49.8971 25.12 49.5671 25.06 49.2871 24.94C49.0071 24.8133 48.7771 24.6367 48.5971 24.41C48.4171 24.1767 48.2838 23.9 48.1971 23.58C48.1105 23.26 48.0671 22.9 48.0671 22.5C48.0671 21.6467 48.2571 20.9967 48.6371 20.55C49.0171 20.1033 49.5605 19.88 50.2671 19.88C50.4938 19.88 50.7205 19.9067 50.9471 19.96C51.1738 20.0067 51.3771 20.1 51.5571 20.24C51.7371 20.38 51.8838 20.58 51.9971 20.84C52.1105 21.0933 52.1671 21.43 52.1671 21.85C52.1671 22.07 52.1471 22.3133 52.1071 22.58H48.8971C48.8971 22.8733 48.9271 23.1333 48.9871 23.36C49.0471 23.5867 49.1405 23.78 49.2671 23.94C49.3938 24.0933 49.5571 24.2133 49.7571 24.3C49.9638 24.38 50.2138 24.42 50.5071 24.42C50.7338 24.42 50.9605 24.38 51.1871 24.3C51.4138 24.22 51.5838 24.1267 51.6971 24.02L51.9971 24.6ZM50.2771 20.58C49.8838 20.58 49.5671 20.6833 49.3271 20.89C49.0938 21.0967 48.9538 21.45 48.9071 21.95H51.3871C51.3871 21.4433 51.2905 21.09 51.0971 20.89C50.9038 20.6833 50.6305 20.58 50.2771 20.58Z" fill="black"/>
<defs>
<filter id="filter0_ddd" x="0" y="0" width="75" height="98" filterUnits="userSpaceOnUse" color-interpolation-filters="sRGB">
<feFlood flood-opacity="0" result="BackgroundImageFix"/>
<feColorMatrix in="SourceAlpha" type="matrix" values="0 0 0 0 0 0 0 0 0 0 0 0 0 0 0 0 0 0 127 0"/>
<feOffset dy="1"/>
<feGaussianBlur stdDeviation="2.5"/>
<feColorMatrix type="matrix" values="0 0 0 0 0 0 0 0 0 0 0 0 0 0 0 0 0 0 0.2 0"/>
<feBlend mode="normal" in2="BackgroundImageFix" result="effect1_dropShadow"/>
<feColorMatrix in="SourceAlpha" type="matrix" values="0 0 0 0 0 0 0 0 0 0 0 0 0 0 0 0 0 0 127 0"/>
<feOffset dy="4"/>
<feGaussianBlur stdDeviation="2"/>
<feColorMatrix type="matrix" values="0 0 0 0 0 0 0 0 0 0 0 0 0 0 0 0 0 0 0.25 0"/>
<feBlend mode="normal" in2="effect1_dropShadow" result="effect2_dropShadow"/>
<feColorMatrix in="SourceAlpha" type="matrix" values="0 0 0 0 0 0 0 0 0 0 0 0 0 0 0 0 0 0 127 0"/>
<feOffset dy="4"/>
<feGaussianBlur stdDeviation="2"/>
<feColorMatrix type="matrix" values="0 0 0 0 0 0 0 0 0 0 0 0 0 0 0 0 0 0 0.25 0"/>
<feBlend mode="normal" in2="effect2_dropShadow" result="effect3_dropShadow"/>
<feBlend mode="normal" in="SourceGraphic" in2="effect3_dropShadow" result="shape"/>
</filter>
</defs>
</svg>
